<mxfile host="app.diagrams.net" modified="2022-11-17T12:43:45.883Z" agent="5.0 (Windows NT 10.0; Win64; x64) AppleWebKit/537.36 (KHTML, like Gecko) Chrome/104.0.5112.81 Safari/537.36" etag="kZMmG1QEQMwbIY3iuPxi" version="20.4.2" type="github">
  <diagram id="bUCNHknx5OucU2bpn4X3" name="Страница 1">
    <mxGraphModel dx="1422" dy="794" grid="1" gridSize="10" guides="1" tooltips="1" connect="1" arrows="1" fold="1" page="1" pageScale="1" pageWidth="827" pageHeight="1169" math="0" shadow="0">
      <root>
        <mxCell id="0" />
        <mxCell id="1" parent="0" />
        <mxCell id="dZjgDAG0xVaVkAZKXMwN-1" value="Игрок" style="shape=umlActor;verticalLabelPosition=bottom;verticalAlign=top;html=1;outlineConnect=0;" parent="1" vertex="1">
          <mxGeometry x="70" y="40" width="30" height="60" as="geometry" />
        </mxCell>
        <mxCell id="ANlqzBpGbpjW8uMC3F-U-1" value="" style="html=1;points=[];perimeter=orthogonalPerimeter;" vertex="1" parent="1">
          <mxGeometry x="80" y="150" width="10" height="150" as="geometry" />
        </mxCell>
        <mxCell id="ANlqzBpGbpjW8uMC3F-U-4" value="Отправить выбранную карту" style="html=1;verticalAlign=bottom;startArrow=oval;startFill=1;endArrow=block;startSize=8;rounded=0;entryX=-0.376;entryY=0.08;entryDx=0;entryDy=0;entryPerimeter=0;" edge="1" parent="1" target="ANlqzBpGbpjW8uMC3F-U-5">
          <mxGeometry width="60" relative="1" as="geometry">
            <mxPoint x="90" y="190" as="sourcePoint" />
            <mxPoint x="270" y="190" as="targetPoint" />
          </mxGeometry>
        </mxCell>
        <mxCell id="ANlqzBpGbpjW8uMC3F-U-5" value="" style="html=1;points=[];perimeter=orthogonalPerimeter;" vertex="1" parent="1">
          <mxGeometry x="280" y="180" width="10" height="120" as="geometry" />
        </mxCell>
        <mxCell id="ANlqzBpGbpjW8uMC3F-U-6" value="Игра" style="html=1;" vertex="1" parent="1">
          <mxGeometry x="230" y="50" width="110" height="50" as="geometry" />
        </mxCell>
        <mxCell id="ANlqzBpGbpjW8uMC3F-U-7" value="" style="endArrow=none;dashed=1;html=1;dashPattern=1 3;strokeWidth=2;rounded=0;entryX=0.521;entryY=-0.01;entryDx=0;entryDy=0;entryPerimeter=0;" edge="1" parent="1" source="dZjgDAG0xVaVkAZKXMwN-1" target="ANlqzBpGbpjW8uMC3F-U-1">
          <mxGeometry width="50" height="50" relative="1" as="geometry">
            <mxPoint x="85" y="140" as="sourcePoint" />
            <mxPoint x="70" y="180" as="targetPoint" />
          </mxGeometry>
        </mxCell>
        <mxCell id="ANlqzBpGbpjW8uMC3F-U-8" value="" style="endArrow=none;dashed=1;html=1;dashPattern=1 3;strokeWidth=2;rounded=0;entryX=0.487;entryY=0;entryDx=0;entryDy=0;entryPerimeter=0;exitX=0.5;exitY=1;exitDx=0;exitDy=0;" edge="1" parent="1" source="ANlqzBpGbpjW8uMC3F-U-6" target="ANlqzBpGbpjW8uMC3F-U-5">
          <mxGeometry width="50" height="50" relative="1" as="geometry">
            <mxPoint x="284.65999999999997" y="130" as="sourcePoint" />
            <mxPoint x="284.87" y="167.39999999999998" as="targetPoint" />
          </mxGeometry>
        </mxCell>
        <mxCell id="ANlqzBpGbpjW8uMC3F-U-9" value="Считать карту" style="html=1;verticalAlign=bottom;endArrow=block;rounded=0;exitX=1.279;exitY=0.244;exitDx=0;exitDy=0;exitPerimeter=0;entryX=-0.066;entryY=0.185;entryDx=0;entryDy=0;entryPerimeter=0;" edge="1" parent="1" source="ANlqzBpGbpjW8uMC3F-U-5" target="ANlqzBpGbpjW8uMC3F-U-11">
          <mxGeometry width="80" relative="1" as="geometry">
            <mxPoint x="380" y="210" as="sourcePoint" />
            <mxPoint x="440" y="207" as="targetPoint" />
            <Array as="points" />
          </mxGeometry>
        </mxCell>
        <mxCell id="ANlqzBpGbpjW8uMC3F-U-10" value="Функция парсинга" style="html=1;" vertex="1" parent="1">
          <mxGeometry x="420" y="50" width="110" height="50" as="geometry" />
        </mxCell>
        <mxCell id="ANlqzBpGbpjW8uMC3F-U-11" value="" style="html=1;points=[];perimeter=orthogonalPerimeter;" vertex="1" parent="1">
          <mxGeometry x="470" y="200" width="10" height="50" as="geometry" />
        </mxCell>
        <mxCell id="ANlqzBpGbpjW8uMC3F-U-12" value="Вернуть массив данных" style="html=1;verticalAlign=bottom;endArrow=open;dashed=1;endSize=8;rounded=0;entryX=1.348;entryY=0.485;entryDx=0;entryDy=0;entryPerimeter=0;" edge="1" parent="1" target="ANlqzBpGbpjW8uMC3F-U-5">
          <mxGeometry relative="1" as="geometry">
            <mxPoint x="470" y="240" as="sourcePoint" />
            <mxPoint x="300" y="240" as="targetPoint" />
          </mxGeometry>
        </mxCell>
        <mxCell id="ANlqzBpGbpjW8uMC3F-U-13" value="" style="endArrow=none;dashed=1;html=1;dashPattern=1 3;strokeWidth=2;rounded=0;entryX=0.487;entryY=0;entryDx=0;entryDy=0;entryPerimeter=0;exitX=0.5;exitY=1;exitDx=0;exitDy=0;" edge="1" parent="1" source="ANlqzBpGbpjW8uMC3F-U-10" target="ANlqzBpGbpjW8uMC3F-U-11">
          <mxGeometry width="50" height="50" relative="1" as="geometry">
            <mxPoint x="474.65999999999985" y="130" as="sourcePoint" />
            <mxPoint x="474.8700000000001" y="180" as="targetPoint" />
          </mxGeometry>
        </mxCell>
        <mxCell id="ANlqzBpGbpjW8uMC3F-U-14" value="Нарисовать карту" style="html=1;verticalAlign=bottom;endArrow=block;rounded=0;exitX=1.21;exitY=0.204;exitDx=0;exitDy=0;exitPerimeter=0;" edge="1" parent="1">
          <mxGeometry x="0.0268" y="50" width="80" relative="1" as="geometry">
            <mxPoint x="292.76000000000016" y="255.6799999999999" as="sourcePoint" />
            <mxPoint x="293" y="280" as="targetPoint" />
            <Array as="points">
              <mxPoint x="360" y="256" />
              <mxPoint x="360" y="280" />
            </Array>
            <mxPoint as="offset" />
          </mxGeometry>
        </mxCell>
        <mxCell id="ANlqzBpGbpjW8uMC3F-U-15" value="Вывести изображение на экран" style="html=1;verticalAlign=bottom;endArrow=open;dashed=1;endSize=8;rounded=0;entryX=1;entryY=0.933;entryDx=0;entryDy=0;entryPerimeter=0;" edge="1" parent="1" target="ANlqzBpGbpjW8uMC3F-U-1">
          <mxGeometry relative="1" as="geometry">
            <mxPoint x="280" y="290" as="sourcePoint" />
            <mxPoint x="200" y="290" as="targetPoint" />
          </mxGeometry>
        </mxCell>
        <mxCell id="ANlqzBpGbpjW8uMC3F-U-18" value="" style="endArrow=none;dashed=1;html=1;dashPattern=1 3;strokeWidth=2;rounded=0;exitX=0.59;exitY=1.016;exitDx=0;exitDy=0;exitPerimeter=0;" edge="1" parent="1" source="ANlqzBpGbpjW8uMC3F-U-1">
          <mxGeometry width="50" height="50" relative="1" as="geometry">
            <mxPoint x="70" y="440" as="sourcePoint" />
            <mxPoint x="86" y="360" as="targetPoint" />
            <Array as="points">
              <mxPoint x="86" y="360" />
            </Array>
          </mxGeometry>
        </mxCell>
        <mxCell id="ANlqzBpGbpjW8uMC3F-U-19" value="" style="html=1;points=[];perimeter=orthogonalPerimeter;" vertex="1" parent="1">
          <mxGeometry x="80" y="360" width="10" height="80" as="geometry" />
        </mxCell>
        <mxCell id="ANlqzBpGbpjW8uMC3F-U-20" value="" style="html=1;points=[];perimeter=orthogonalPerimeter;" vertex="1" parent="1">
          <mxGeometry x="280" y="360" width="10" height="80" as="geometry" />
        </mxCell>
        <mxCell id="ANlqzBpGbpjW8uMC3F-U-21" value="Сделать ход" style="html=1;verticalAlign=bottom;startArrow=oval;startFill=1;endArrow=block;startSize=8;rounded=0;entryX=-0.376;entryY=0.08;entryDx=0;entryDy=0;entryPerimeter=0;" edge="1" parent="1">
          <mxGeometry width="60" relative="1" as="geometry">
            <mxPoint x="93.76" y="370.4" as="sourcePoint" />
            <mxPoint x="280" y="370" as="targetPoint" />
          </mxGeometry>
        </mxCell>
        <mxCell id="ANlqzBpGbpjW8uMC3F-U-22" value="" style="endArrow=none;dashed=1;html=1;dashPattern=1 3;strokeWidth=2;rounded=0;exitX=0.59;exitY=1.016;exitDx=0;exitDy=0;exitPerimeter=0;entryX=0.383;entryY=-0.022;entryDx=0;entryDy=0;entryPerimeter=0;" edge="1" parent="1" target="ANlqzBpGbpjW8uMC3F-U-20">
          <mxGeometry width="50" height="50" relative="1" as="geometry">
            <mxPoint x="284.6600000000001" y="302.4" as="sourcePoint" />
            <mxPoint x="284.76" y="360" as="targetPoint" />
          </mxGeometry>
        </mxCell>
        <mxCell id="ANlqzBpGbpjW8uMC3F-U-24" value="Отрисовать игрока в новой позиции" style="html=1;verticalAlign=bottom;endArrow=block;rounded=0;exitX=1.279;exitY=0.357;exitDx=0;exitDy=0;exitPerimeter=0;entryX=1;entryY=0.625;entryDx=0;entryDy=0;entryPerimeter=0;" edge="1" parent="1" source="ANlqzBpGbpjW8uMC3F-U-20" target="ANlqzBpGbpjW8uMC3F-U-20">
          <mxGeometry x="-0.0176" y="30" width="80" relative="1" as="geometry">
            <mxPoint x="330" y="420" as="sourcePoint" />
            <mxPoint x="400" y="440" as="targetPoint" />
            <Array as="points">
              <mxPoint x="360" y="390" />
              <mxPoint x="360" y="410" />
            </Array>
            <mxPoint as="offset" />
          </mxGeometry>
        </mxCell>
        <mxCell id="ANlqzBpGbpjW8uMC3F-U-25" value="Вывести изображение на экран" style="html=1;verticalAlign=bottom;endArrow=open;dashed=1;endSize=8;rounded=0;entryX=1;entryY=0.933;entryDx=0;entryDy=0;entryPerimeter=0;" edge="1" parent="1">
          <mxGeometry relative="1" as="geometry">
            <mxPoint x="280" y="439.36" as="sourcePoint" />
            <mxPoint x="90" y="439.3100000000002" as="targetPoint" />
            <Array as="points">
              <mxPoint x="180" y="439.36" />
            </Array>
          </mxGeometry>
        </mxCell>
        <mxCell id="ANlqzBpGbpjW8uMC3F-U-29" value="" style="html=1;points=[];perimeter=orthogonalPerimeter;" vertex="1" parent="1">
          <mxGeometry x="80" y="490" width="10" height="80" as="geometry" />
        </mxCell>
        <mxCell id="ANlqzBpGbpjW8uMC3F-U-30" value="" style="endArrow=none;dashed=1;html=1;dashPattern=1 3;strokeWidth=2;rounded=0;entryX=0.521;entryY=-0.018;entryDx=0;entryDy=0;entryPerimeter=0;" edge="1" parent="1" target="ANlqzBpGbpjW8uMC3F-U-29">
          <mxGeometry width="50" height="50" relative="1" as="geometry">
            <mxPoint x="85" y="440" as="sourcePoint" />
            <mxPoint x="84.76" y="497.6" as="targetPoint" />
          </mxGeometry>
        </mxCell>
        <mxCell id="ANlqzBpGbpjW8uMC3F-U-31" value="Сделать ход на предмет" style="html=1;verticalAlign=bottom;startArrow=oval;startFill=1;endArrow=block;startSize=8;rounded=0;entryX=-0.376;entryY=0.08;entryDx=0;entryDy=0;entryPerimeter=0;" edge="1" parent="1">
          <mxGeometry width="60" relative="1" as="geometry">
            <mxPoint x="93.75999999999999" y="490.39999999999986" as="sourcePoint" />
            <mxPoint x="280" y="490" as="targetPoint" />
          </mxGeometry>
        </mxCell>
        <mxCell id="ANlqzBpGbpjW8uMC3F-U-32" value="" style="html=1;points=[];perimeter=orthogonalPerimeter;" vertex="1" parent="1">
          <mxGeometry x="280" y="490" width="10" height="80" as="geometry" />
        </mxCell>
        <mxCell id="ANlqzBpGbpjW8uMC3F-U-33" value="" style="endArrow=none;dashed=1;html=1;dashPattern=1 3;strokeWidth=2;rounded=0;entryX=0.521;entryY=-0.018;entryDx=0;entryDy=0;entryPerimeter=0;" edge="1" parent="1">
          <mxGeometry width="50" height="50" relative="1" as="geometry">
            <mxPoint x="284.65999999999997" y="441.44" as="sourcePoint" />
            <mxPoint x="284.87" y="489.99999999999994" as="targetPoint" />
          </mxGeometry>
        </mxCell>
        <mxCell id="ANlqzBpGbpjW8uMC3F-U-34" value="Увеличить счетчик" style="html=1;verticalAlign=bottom;endArrow=block;rounded=0;exitX=1.279;exitY=0.357;exitDx=0;exitDy=0;exitPerimeter=0;entryX=1;entryY=0.625;entryDx=0;entryDy=0;entryPerimeter=0;" edge="1" parent="1">
          <mxGeometry x="-0.0176" y="30" width="80" relative="1" as="geometry">
            <mxPoint x="292.78999999999996" y="499.99999999999994" as="sourcePoint" />
            <mxPoint x="290" y="521.44" as="targetPoint" />
            <Array as="points">
              <mxPoint x="360" y="501.44" />
              <mxPoint x="360" y="521.44" />
            </Array>
            <mxPoint as="offset" />
          </mxGeometry>
        </mxCell>
        <mxCell id="ANlqzBpGbpjW8uMC3F-U-35" value="Отрисовать игрока в новой позиции" style="html=1;verticalAlign=bottom;endArrow=block;rounded=0;exitX=1.279;exitY=0.357;exitDx=0;exitDy=0;exitPerimeter=0;entryX=1;entryY=0.625;entryDx=0;entryDy=0;entryPerimeter=0;" edge="1" parent="1">
          <mxGeometry x="-0.0176" y="30" width="80" relative="1" as="geometry">
            <mxPoint x="292.78999999999996" y="540" as="sourcePoint" />
            <mxPoint x="290" y="561.44" as="targetPoint" />
            <Array as="points">
              <mxPoint x="360" y="541.44" />
              <mxPoint x="360" y="561.44" />
            </Array>
            <mxPoint as="offset" />
          </mxGeometry>
        </mxCell>
        <mxCell id="ANlqzBpGbpjW8uMC3F-U-36" value="Вывести изображение на экран" style="html=1;verticalAlign=bottom;endArrow=open;dashed=1;endSize=8;rounded=0;entryX=1;entryY=0.933;entryDx=0;entryDy=0;entryPerimeter=0;" edge="1" parent="1">
          <mxGeometry relative="1" as="geometry">
            <mxPoint x="280" y="569.36" as="sourcePoint" />
            <mxPoint x="90" y="569.3100000000002" as="targetPoint" />
            <Array as="points">
              <mxPoint x="180" y="569.36" />
            </Array>
          </mxGeometry>
        </mxCell>
        <mxCell id="ANlqzBpGbpjW8uMC3F-U-37" value="" style="html=1;points=[];perimeter=orthogonalPerimeter;" vertex="1" parent="1">
          <mxGeometry x="80" y="620" width="10" height="90" as="geometry" />
        </mxCell>
        <mxCell id="ANlqzBpGbpjW8uMC3F-U-38" value="" style="endArrow=none;dashed=1;html=1;dashPattern=1 3;strokeWidth=2;rounded=0;entryX=0.59;entryY=0.003;entryDx=0;entryDy=0;entryPerimeter=0;" edge="1" parent="1" target="ANlqzBpGbpjW8uMC3F-U-37">
          <mxGeometry width="50" height="50" relative="1" as="geometry">
            <mxPoint x="84.66" y="570" as="sourcePoint" />
            <mxPoint x="84.87000000000003" y="618.56" as="targetPoint" />
          </mxGeometry>
        </mxCell>
        <mxCell id="ANlqzBpGbpjW8uMC3F-U-39" value="Сделать ход на финиш(врага)" style="html=1;verticalAlign=bottom;startArrow=oval;startFill=1;endArrow=block;startSize=8;rounded=0;entryX=-0.376;entryY=0.08;entryDx=0;entryDy=0;entryPerimeter=0;" edge="1" parent="1">
          <mxGeometry width="60" relative="1" as="geometry">
            <mxPoint x="93.75999999999999" y="630.3999999999999" as="sourcePoint" />
            <mxPoint x="280" y="630" as="targetPoint" />
          </mxGeometry>
        </mxCell>
        <mxCell id="ANlqzBpGbpjW8uMC3F-U-40" value="" style="html=1;points=[];perimeter=orthogonalPerimeter;" vertex="1" parent="1">
          <mxGeometry x="280" y="630" width="10" height="70" as="geometry" />
        </mxCell>
        <mxCell id="ANlqzBpGbpjW8uMC3F-U-41" value="" style="endArrow=none;dashed=1;html=1;dashPattern=1 3;strokeWidth=2;rounded=0;entryX=0.383;entryY=-0.018;entryDx=0;entryDy=0;entryPerimeter=0;" edge="1" parent="1" target="ANlqzBpGbpjW8uMC3F-U-40">
          <mxGeometry width="50" height="50" relative="1" as="geometry">
            <mxPoint x="284.3800000000001" y="570" as="sourcePoint" />
            <mxPoint x="285.6200000000001" y="620.24" as="targetPoint" />
          </mxGeometry>
        </mxCell>
        <mxCell id="ANlqzBpGbpjW8uMC3F-U-42" value="Вызвать функцию game_over" style="html=1;verticalAlign=bottom;endArrow=block;rounded=0;exitX=1.279;exitY=0.357;exitDx=0;exitDy=0;exitPerimeter=0;entryX=1;entryY=0.625;entryDx=0;entryDy=0;entryPerimeter=0;" edge="1" parent="1">
          <mxGeometry x="-0.0176" y="30" width="80" relative="1" as="geometry">
            <mxPoint x="292.78999999999996" y="649.28" as="sourcePoint" />
            <mxPoint x="290" y="670.72" as="targetPoint" />
            <Array as="points">
              <mxPoint x="360" y="650.72" />
              <mxPoint x="360" y="670.72" />
            </Array>
            <mxPoint as="offset" />
          </mxGeometry>
        </mxCell>
        <mxCell id="ANlqzBpGbpjW8uMC3F-U-43" value="Вывести сообщение о game_over" style="html=1;verticalAlign=bottom;endArrow=open;dashed=1;endSize=8;rounded=0;entryX=1;entryY=0.933;entryDx=0;entryDy=0;entryPerimeter=0;" edge="1" parent="1">
          <mxGeometry relative="1" as="geometry">
            <mxPoint x="280" y="700.0500000000002" as="sourcePoint" />
            <mxPoint x="90" y="700.0000000000002" as="targetPoint" />
            <Array as="points">
              <mxPoint x="180" y="700.05" />
            </Array>
          </mxGeometry>
        </mxCell>
        <mxCell id="ANlqzBpGbpjW8uMC3F-U-44" value="Игра" style="shape=umlFrame;whiteSpace=wrap;html=1;" vertex="1" parent="1">
          <mxGeometry x="10" y="120" width="610" height="620" as="geometry" />
        </mxCell>
      </root>
    </mxGraphModel>
  </diagram>
</mxfile>
